<svg version="1.1" xmlns="http://www.w3.org/2000/svg" viewBox="0 0 641.4463668171677 479" width="1282.8927336343354" height="958">
  <!-- svg-source:excalidraw -->
  
  <defs>
    <style>
      @font-face {
        font-family: "Virgil";
        src: url("https://excalidraw.com/Virgil.woff2");
      }
      @font-face {
        font-family: "Cascadia";
        src: url("https://excalidraw.com/Cascadia.woff2");
      }
    </style>
  </defs>
  <g stroke-opacity="0.3" fill-opacity="0.3" stroke-linecap="round" transform="translate(79 10) rotate(0 225 229.5)"><path d="M109.48 3.28 L333.79 -0.58 L363.64 4.27 L383.63 6.16 L408.1 12.81 L424.28 25.06 L436.27 40.89 L445.04 59.37 L445.75 97.46 L448.73 361.91 L448.66 384.88 L442.01 403.08 L426.12 425.23 L402.87 442.89 L390.31 449.83 L353.05 454.93 L99.57 459.02 L71.87 455.51 L52.43 447.86 L36.73 440.67 L15.38 411.29 L7.74 382.53 L0.33 359.97 L2.85 115.98 L0.46 73.17 L17.42 45.41 L27.84 27.75 L45.27 14.79 L76.05 6.17 L113.8 -2.79" stroke="none" stroke-width="0" fill="#d4c028"></path><path d="M112.5 0 M112.5 0 C185.06 2.54, 258.57 -1.31, 337.5 0 M112.5 0 C194.64 1.82, 278.13 3.2, 337.5 0 M337.5 0 C411.88 3.94, 450.9 36.54, 450 112.5 M337.5 0 C412.32 -2.12, 452.36 39.24, 450 112.5 M450 112.5 C451.88 195.73, 452.37 278.43, 450 346.5 M450 112.5 C450.68 188.02, 449.97 262.37, 450 346.5 M450 346.5 C449.77 423.17, 415.4 457.39, 337.5 459 M450 346.5 C454.48 425.38, 415.06 460.38, 337.5 459 M337.5 459 C279.29 453.82, 224.32 457.19, 112.5 459 M337.5 459 C292.3 456.02, 245.96 457.2, 112.5 459 M112.5 459 C36.14 459.25, -2.31 419.34, 0 346.5 M112.5 459 C38.56 459.07, -2.93 425.94, 0 346.5 M0 346.5 C-1.29 291.49, 3.42 239.24, 0 112.5 M0 346.5 C0.64 267.06, -0.29 187.92, 0 112.5 M0 112.5 C-3.42 39.77, 35.99 -2.64, 112.5 0 M0 112.5 C-3.7 34.69, 35.43 0.23, 112.5 0" stroke="#d4c028" stroke-width="2" fill="none"></path></g><g stroke-linecap="round" transform="translate(113.5 72.5) rotate(0 166.5 36.5)"><path d="M18.21 -1.13 L318.91 1.12 L327.32 1.76 L333.81 11.95 L334.11 18.85 L331.84 57.82 L327.03 68.12 L321.3 73.12 L315.28 71.06 L12.38 71.91 L5.12 66.77 L0.92 62.45 L-0.68 18.37 L-0.02 9.19 L5.02 4.59 L8.99 3.07 L16.87 -0.33" stroke="none" stroke-width="0" fill="white"></path><path d="M18.25 0 M18.25 0 C131.71 1, 243.32 0.29, 314.75 0 M18.25 0 C129.8 0.19, 241.74 0.6, 314.75 0 M314.75 0 C326.16 -1.32, 331.39 4.86, 333 18.25 M314.75 0 C325.88 0.11, 334.33 5.94, 333 18.25 M333 18.25 C333.52 25.07, 331.69 34.08, 333 54.75 M333 18.25 C333.82 33.62, 333.16 47.36, 333 54.75 M333 54.75 C331.7 66.93, 325.02 71.16, 314.75 73 M333 54.75 C334.04 66.95, 326.61 71.88, 314.75 73 M314.75 73 C232.07 73.81, 147.63 73.63, 18.25 73 M314.75 73 C247.4 72.95, 180.94 73.68, 18.25 73 M18.25 73 C6.79 73.02, -0.61 66.88, 0 54.75 M18.25 73 C4.1 70.92, 0.88 64.95, 0 54.75 M0 54.75 C-0.7 43.21, -1.68 28.86, 0 18.25 M0 54.75 C-1.08 44.63, -0.86 35.63, 0 18.25 M0 18.25 C-1.8 7.45, 7.59 1.55, 18.25 0 M0 18.25 C-1.45 6.8, 3.93 -1.85, 18.25 0" stroke="transparent" stroke-width="2" fill="none"></path></g><g stroke-opacity="0.8" fill-opacity="0.8" stroke-linecap="round" transform="translate(150 160) rotate(0 131 141.5)"><path d="M152.88 0.09 C166.22 0.47, 179.11 8.84, 191.69 16.51 C204.27 24.17, 218.23 34.75, 228.35 46.07 C238.48 57.4, 246.65 70.68, 252.43 84.48 C258.21 98.27, 261.92 113.55, 263.05 128.84 C264.17 144.13, 262.72 161.34, 259.17 176.19 C255.62 191.05, 249.67 204.91, 241.75 217.99 C233.83 231.06, 223.36 245.3, 211.65 254.64 C199.93 263.99, 184.88 269.5, 171.46 274.07 C158.05 278.63, 144.8 281.64, 131.17 282.03 C117.54 282.43, 102.82 281.21, 89.68 276.45 C76.54 271.68, 63.88 263.3, 52.34 253.44 C40.79 243.59, 28.36 230.51, 20.42 217.29 C12.48 204.07, 8.25 188.75, 4.69 174.13 C1.14 159.51, -1.87 144.23, -0.91 129.57 C0.05 114.91, 4.21 100.29, 10.46 86.19 C16.71 72.09, 26.95 56.2, 36.58 44.97 C46.21 33.75, 55.75 25.98, 68.25 18.83 C80.75 11.68, 93.25 4.04, 111.57 2.07 C129.9 0.1, 164.04 3.85, 178.2 7.01 C192.36 10.18, 197.32 18.67, 196.55 21.05 M157.84 3.73 C171.68 4.37, 187.16 13.62, 199.3 21.47 C211.45 29.32, 221.56 38.73, 230.7 50.84 C239.84 62.94, 248.95 80.05, 254.12 94.11 C259.28 108.17, 261.23 120.03, 261.67 135.18 C262.11 150.32, 260.51 170, 256.77 184.99 C253.02 199.98, 247.31 212.74, 239.19 225.13 C231.07 237.52, 220.48 251.03, 208.03 259.33 C195.58 267.64, 178.07 271.11, 164.47 274.96 C150.86 278.81, 139.98 283.19, 126.4 282.43 C112.81 281.67, 96.52 275.66, 82.97 270.39 C69.41 265.12, 55.93 260.23, 45.08 250.81 C34.24 241.39, 24.85 227.89, 17.91 213.86 C10.98 199.83, 5.9 181.66, 3.45 166.62 C1 151.58, 1.28 138.16, 3.21 123.63 C5.14 109.1, 8.55 93.2, 15.02 79.42 C21.49 65.64, 31.57 52.18, 42.05 40.95 C52.53 29.72, 65.59 18.54, 77.93 12.06 C90.26 5.58, 102.54 3.34, 116.06 2.06 C129.58 0.79, 152.11 3.32, 159.04 4.43 C165.98 5.54, 157.57 6.21, 157.67 8.74" stroke="none" stroke-width="0" fill="white"></path><path d="M27.13 54.27 C34.36 41.1, 49.5 29.95, 61.54 21.77 C73.59 13.6, 85.55 8.45, 99.39 5.22 C113.24 1.98, 130.31 1.25, 144.61 2.37 C158.91 3.5, 172.67 5.76, 185.2 11.97 C197.73 18.18, 209.31 28.96, 219.77 39.63 C230.23 50.31, 241.11 62.77, 247.98 76.04 C254.85 89.3, 259.02 104.39, 260.98 119.22 C262.94 134.04, 262.37 149.94, 259.73 164.98 C257.09 180.02, 251.75 195.68, 245.14 209.45 C238.53 223.23, 230.4 237.22, 220.07 247.61 C209.74 258.01, 196.75 266.05, 183.16 271.8 C169.58 277.56, 152.84 281.31, 138.54 282.17 C124.24 283.02, 110.56 280.87, 97.35 276.94 C84.15 273, 71.17 266.78, 59.3 258.57 C47.43 250.35, 34.82 239.96, 26.13 227.67 C17.44 215.38, 11.37 199.41, 7.17 184.83 C2.98 170.24, 0.65 155.15, 0.96 140.16 C1.27 125.18, 2.7 110.98, 9.02 94.9 C15.34 78.82, 32.14 53.52, 38.88 43.68 C45.63 33.84, 48.15 34.31, 49.49 35.85 M100.2 6.8 C112.41 0.84, 129.35 -3.32, 143.82 -2.23 C158.28 -1.14, 174.25 6.58, 187 13.33 C199.75 20.08, 210.19 28.08, 220.33 38.28 C230.48 48.49, 241.17 60.85, 247.88 74.57 C254.59 88.28, 258.97 104.91, 260.6 120.58 C262.23 136.25, 260.5 153.98, 257.67 168.6 C254.84 183.22, 250.01 195.02, 243.62 208.31 C237.24 221.6, 229.13 237.76, 219.35 248.34 C209.56 258.92, 197.76 266.24, 184.92 271.8 C172.08 277.35, 156.8 280.28, 142.29 281.66 C127.78 283.05, 111.75 283.79, 97.86 280.12 C83.97 276.46, 71.21 269.01, 58.96 259.67 C46.72 250.32, 33.4 236.48, 24.4 224.05 C15.39 211.61, 8.67 198.88, 4.93 185.06 C1.2 171.24, 1.08 156.67, 1.97 141.14 C2.86 125.62, 6.12 106.68, 10.29 91.93 C14.45 77.19, 18.6 64.55, 26.96 52.68 C35.33 40.82, 48.65 29.18, 60.48 20.75 C72.31 12.32, 91.01 4.24, 97.95 2.11 C104.89 -0.01, 101.24 5.9, 102.11 8" stroke="black" stroke-width="2" fill="none"></path></g><g stroke-opacity="0.3" fill-opacity="0.3" stroke-linecap="round" transform="translate(111 70) rotate(0 166.5 36.5)"><path d="M4.86 4.22 C4.86 4.22, 4.86 4.22, 4.86 4.22 M4.86 4.22 C4.86 4.22, 4.86 4.22, 4.86 4.22 M1.71 20.04 C9.45 12.41, 15.52 4.54, 18.77 0.41 M1.71 20.04 C6.57 15.88, 9.42 12, 18.77 0.41 M1.84 32.08 C10.72 23.18, 18.22 14.08, 29.4 0.38 M1.84 32.08 C12.36 20.14, 23.51 6.9, 29.4 0.38 M2.63 43.36 C8.39 32.78, 18.73 26.67, 40.03 0.35 M2.63 43.36 C14.44 29.31, 25.13 15.31, 40.03 0.35 M2.77 55.41 C15.08 42.61, 26.1 27.69, 50.66 0.31 M2.77 55.41 C19.54 35.8, 35.49 17.29, 50.66 0.31 M4.21 65.94 C19.62 48.09, 35.47 31.79, 61.29 0.28 M4.21 65.94 C22.55 45.67, 39.69 25.18, 61.29 0.28 M8.94 72.69 C27.37 51.36, 48.77 29.44, 71.92 0.24 M8.94 72.69 C28.3 50.61, 46.93 27.31, 71.92 0.24 M16.94 75.68 C29.51 60.74, 45.37 43.3, 82.55 0.21 M16.94 75.68 C37.21 51.24, 58.33 27.1, 82.55 0.21 M27.57 75.64 C51.38 50.45, 75.48 23.95, 93.18 0.17 M27.57 75.64 C52.59 47.18, 78.14 18.49, 93.18 0.17 M38.2 75.61 C62.9 51.11, 82.17 25.62, 103.81 0.14 M38.2 75.61 C51.55 60.88, 65.74 45.6, 103.81 0.14 M48.83 75.58 C71.76 51.49, 89.91 27.99, 113.78 0.86 M48.83 75.58 C73.5 47.77, 96.65 19.74, 113.78 0.86 M59.46 75.54 C74.32 56.1, 91.25 36.68, 124.41 0.82 M59.46 75.54 C81.97 46.89, 107.53 19.34, 124.41 0.82 M70.09 75.51 C85.13 59.11, 98.55 40.16, 135.04 0.79 M70.09 75.51 C89.87 53.79, 109.53 32.19, 135.04 0.79 M80.72 75.47 C103.06 46.69, 128.57 22.52, 145.67 0.76 M80.72 75.47 C106.27 46.62, 130.99 18.44, 145.67 0.76 M91.35 75.44 C111.84 50.7, 134.28 26.85, 156.3 0.72 M91.35 75.44 C108.98 54.75, 126.45 33.64, 156.3 0.72 M101.98 75.4 C126.28 47.65, 150.53 19.9, 166.93 0.69 M101.98 75.4 C124.76 50, 147.3 22.87, 166.93 0.69 M112.61 75.37 C130.08 53.14, 152.39 28.81, 177.56 0.65 M112.61 75.37 C137.18 44.8, 163.15 16.02, 177.56 0.65 M123.24 75.33 C145.5 49.04, 171.3 20.98, 188.19 0.62 M123.24 75.33 C144.27 49.56, 167.03 24.83, 188.19 0.62 M133.87 75.3 C152.68 53.65, 175.96 29.5, 198.82 0.58 M133.87 75.3 C154.78 52.84, 174.08 29.63, 198.82 0.58 M144.5 75.26 C165.84 51.51, 186.94 27.72, 209.45 0.55 M144.5 75.26 C167.49 48.82, 191.4 21.19, 209.45 0.55 M155.13 75.23 C178.58 47.36, 200.52 23.49, 220.08 0.51 M155.13 75.23 C179.39 46.99, 205.73 17.93, 220.08 0.51 M165.11 75.95 C187.12 51.87, 207.65 30.26, 230.71 0.48 M165.11 75.95 C189.09 48, 214.59 19.01, 230.71 0.48 M175.74 75.92 C195.4 53.79, 212.67 32.72, 241.34 0.45 M175.74 75.92 C199.12 47.5, 223.09 20.83, 241.34 0.45 M186.37 75.88 C211.16 48.84, 236.29 17.59, 251.97 0.41 M186.37 75.88 C206.29 54.16, 225.28 32.82, 251.97 0.41 M197 75.85 C212.2 60.93, 224.09 45.66, 262.6 0.38 M197 75.85 C219.17 52.2, 240.26 26.5, 262.6 0.38 M207.63 75.81 C223.87 56.49, 241.51 39.73, 273.23 0.34 M207.63 75.81 C231.67 48.57, 257.21 20.12, 273.23 0.34 M218.26 75.78 C234.3 55.27, 254.54 32.85, 283.21 1.06 M218.26 75.78 C240.21 50.89, 262.08 26.17, 283.21 1.06 M228.89 75.74 C247.9 53.52, 266.9 30.74, 293.84 1.03 M228.89 75.74 C245.02 59.1, 260.3 40.49, 293.84 1.03 M239.52 75.71 C257.89 57.24, 276 36.83, 304.47 0.99 M239.52 75.71 C261.29 48.98, 282.92 24.02, 304.47 0.99 M250.15 75.67 C273.77 49.49, 296.43 24.42, 315.1 0.96 M250.15 75.67 C264.46 58.28, 280.46 41.09, 315.1 0.96 M260.78 75.64 C277.19 57.24, 293.66 36.69, 323.1 3.94 M260.78 75.64 C280.39 53.22, 299.39 30.96, 323.1 3.94 M271.41 75.61 C290.07 53.31, 309.34 32.49, 331.11 6.93 M271.41 75.61 C287.71 55.47, 305.66 36.09, 331.11 6.93 M282.04 75.57 C301.74 52.88, 318.35 32.02, 335.84 13.68 M282.04 75.57 C298.32 56.24, 316.59 36.59, 335.84 13.68 M292.67 75.54 C303.86 60.32, 317.22 48.55, 338.59 22.71 M292.67 75.54 C303.97 62.27, 315.62 50.03, 338.59 22.71 M303.3 75.5 C314.02 66.23, 322.25 53.39, 338.07 35.5 M303.3 75.5 C317.66 59.96, 331.48 44.73, 338.07 35.5 M315.24 73.96 C321.36 69.4, 322.84 62.96, 338.2 47.54 M315.24 73.96 C323.85 65.12, 331.93 54.95, 338.2 47.54" stroke="#c91e85" stroke-width="1" fill="none"></path><path d="M18.25 0 M18.25 0 C85.41 -1.81, 156.21 -0.31, 314.75 0 M18.25 0 C116.61 -1.67, 214.96 -1.42, 314.75 0 M314.75 0 C327.97 -1.44, 334.43 6.54, 333 18.25 M314.75 0 C328.77 0.38, 332.9 6.5, 333 18.25 M333 18.25 C332.99 32.2, 332.91 44.24, 333 54.75 M333 18.25 C333.47 31.11, 333.76 42.98, 333 54.75 M333 54.75 C332.27 66.42, 325.55 73.95, 314.75 73 M333 54.75 C330.71 67.34, 329.05 73.83, 314.75 73 M314.75 73 C237.63 76.02, 159.84 75.9, 18.25 73 M314.75 73 C217.06 73.15, 119.03 72.9, 18.25 73 M18.25 73 C7.47 73.26, 0.06 66.6, 0 54.75 M18.25 73 C7.22 72.97, 0.94 65.69, 0 54.75 M0 54.75 C-1.91 44.92, -1.78 35.6, 0 18.25 M0 54.75 C0.94 42.74, 0.05 30.82, 0 18.25 M0 18.25 C-1.73 4.98, 7.34 1, 18.25 0 M0 18.25 C0.9 5.89, 5.77 2.29, 18.25 0" stroke="transparent" stroke-width="2" fill="none"></path></g><g stroke-linecap="round" transform="translate(133 87) rotate(0 19.5 18.5)"><path d="M1.31 0.33 L38 -1.62 L37.73 36.51 L1.09 38.16" stroke="none" stroke-width="0" fill="#d559e3"></path><path d="M0.69 1.7 C14.62 2, 26.71 1.56, 38.74 0.62 M-0.43 0.42 C14.05 -0.33, 27.02 0.24, 38.2 0.43 M38.38 -1.36 C37.26 14.55, 38.72 26.54, 38.19 35.72 M38.38 -0.56 C38.75 7.94, 38.7 17.24, 39.85 36.19 M37.19 35.72 C30.11 37.66, 18.23 37.03, -1.81 37.69 M38.38 37.23 C27.97 37.36, 14.23 37.78, -0.93 37.99 M1.78 36.19 C1.45 22.35, -1.25 6.72, -0.53 -1.29 M0.97 37.19 C-0.67 24.71, -0.22 13.75, -0.26 0.26" stroke="#000000" stroke-width="1" fill="none"></path></g><g stroke-linecap="round" transform="translate(195.5 87.5) rotate(0 19.5 18.5)"><path d="M0 0 C0 0, 0 0, 0 0 M0 0 C0 0, 0 0, 0 0 M0.13 6.93 C1.54 5.47, 3.31 3.21, 4.86 0.22 M0 6.02 C0.83 4.95, 2.3 3.39, 4.83 0.34 M-1.21 11.99 C2.7 8.6, 6.8 2.82, 10.43 -1.19 M-0.54 12.35 C4.52 7.44, 7.77 3.95, 9.83 0.36 M-1.23 18.54 C5.4 10.19, 10.81 5.62, 16.19 1.14 M0.3 18.53 C5.67 12.53, 9.79 7.12, 15.14 -0.05 M0.54 25.93 C8.15 16.16, 13.69 7.24, 21.93 0.46 M-0.53 24.97 C6.52 18.82, 10.96 12.49, 21.22 0.45 M-0.56 31.27 C5.11 21.69, 11.13 18.15, 26.21 1.66 M-0.98 29.69 C6.58 23.91, 13.41 16.25, 27.11 -0.63 M-1.45 34.97 C10.9 24.71, 22.56 11.23, 33.71 -1.55 M-1.11 37.08 C8.85 25.59, 20.4 13.32, 31.44 0.83 M3.02 37.98 C16.31 25.65, 26.93 13.26, 35.92 1.14 M2.46 40.24 C16.45 24.39, 29.06 8.05, 36.03 0.67 M7.49 39.35 C15.26 29.31, 24.06 24.48, 41.07 2.08 M8.93 39.52 C18.6 26.46, 29.76 15.86, 40.77 0.94 M11.42 40.7 C19.91 29.05, 27.34 24.42, 42.92 7.72 M13.67 39.99 C21.96 31.19, 28.29 21.53, 41.4 6.96 M20.31 39.95 C23.4 33.55, 32.32 25.2, 39.16 14.25 M18.41 38.17 C27.9 29.91, 35.56 19.96, 40.97 13.93 M24.45 37.57 C28.83 34.1, 33.05 32.1, 41.01 19.96 M23.06 39.33 C28.12 34.89, 30.47 30.86, 40.38 20.32 M29.51 41.2 C29.68 36.39, 32.19 34.38, 41.11 25.08 M29.22 39.22 C33.69 35.31, 36.69 30.97, 41.28 26.52 M33.72 39.03 C35.49 37.06, 37.42 35.34, 40.76 31.87 M35.03 39.24 C36.52 38.08, 37.32 35.73, 41.58 32.32 M-0.21 36.82 C-0.21 36.82, -0.21 36.82, -0.21 36.82 M-0.21 36.82 C-0.21 36.82, -0.21 36.82, -0.21 36.82 M6.52 36.96 C4.89 36.3, 3.57 33.95, 0.4 31.52 M6.49 37.18 C4.68 35.29, 2.91 34.58, 0.26 32.07 M10.3 35.46 C8.73 33.28, 3.33 29.23, -0.71 25.58 M12.36 37.03 C6.74 33.32, 2.47 29.33, -0.95 25.82 M19.37 36.47 C9.83 31.61, 5.14 26.3, 0.8 19.46 M19.01 36.34 C13.61 32.67, 8.03 26.9, 0.1 20.24 M26.29 36.02 C17.98 33.9, 13.01 27.29, 0.74 13.8 M24.41 38.12 C18.48 30.39, 10.67 24.96, -0.7 14.88 M29.04 36.62 C23.84 28.69, 15.39 24.2, -1.45 9.3 M29.41 37.29 C17.95 25.68, 6.19 16.77, 0.48 9.93 M37.69 36.62 C30.88 31.3, 23.14 23.21, -1.78 3.77 M36.75 37.38 C26.38 27.87, 16.95 19.36, -0.62 4.76 M41.2 34 C28.09 25.14, 15.56 15.43, 0.19 -0.83 M41.44 35.69 C24.78 21.04, 8.15 7.67, 0.59 0.09 M38.74 28.95 C29.55 23.05, 19.13 12.9, 8.1 0.32 M41 28.92 C30.73 21.17, 20.54 13.06, 7.2 -0.38 M40.45 23.8 C33.81 18.4, 26.74 12.74, 10.96 -0.88 M41.31 24.01 C33.44 18.48, 25.63 10.97, 12.05 -0.7 M39.13 20.53 C36.3 11.91, 27.21 9.33, 17.52 -1.78 M41.22 18.76 C32.46 13.42, 27.23 6.52, 19.04 -0.02 M42.03 15.31 C36.55 8.63, 34.1 6.12, 22.96 -0.76 M41.38 13.27 C34.39 8.86, 29.31 2.65, 24.83 0.64 M39.35 7.66 C38.62 5.97, 35.79 4.63, 29.46 -1.35 M40.91 8.02 C37.6 6.3, 34.75 3.78, 30.12 0.36 M40.93 3.01 C39.42 2.17, 38.36 1.59, 36.72 0.59 M40.51 3.31 C39.32 2.25, 37.74 0.88, 36.75 0.12" stroke="#d559e3" stroke-width="0.5" fill="none"></path><path d="M1.18 -0.62 C12.03 -1.88, 28.35 -0.42, 39.58 -0.81 M0.49 -0.62 C8.65 -0.81, 17.49 -0.86, 38.53 0.85 M40.29 -1.81 C37.56 9.2, 39.25 15.42, 38.78 35.19 M39.89 -0.62 C39.26 13.3, 39.03 23.9, 39.43 36.07 M37.45 38.78 C22.64 38.04, 7.82 35.33, -1.13 36.47 M38.09 37.97 C30 36.54, 20.13 36.99, 0.33 36.74 M-1 35.38 C-1.52 24.44, 0.85 14.02, -0.85 -0.69 M0.91 36.27 C0.76 25.48, -0.64 13.43, 0.1 -0.55" stroke="#000000" stroke-width="1" fill="none"></path></g><g stroke-linecap="round" transform="translate(262.5 88.5) rotate(0 19.5 18.5)"><path d="M0 0 C0 0, 0 0, 0 0 M0 0 C0 0, 0 0, 0 0 M-0.03 6.02 C1.52 4.31, 3.58 1.59, 5.1 1.1 M-0.36 6.53 C1.59 4.18, 3.01 2.74, 4.67 0.72 M0.84 11.98 C5.02 5.98, 8.63 3.18, 10.18 0.6 M0.61 12.03 C3.6 8.44, 5.15 5.38, 9.84 -0.67 M1.35 20.15 C2.24 14.19, 7.24 6.76, 14.42 -1.58 M-0.54 19.35 C3.89 13.05, 9.43 7.34, 14.77 0.53 M-0.44 23.19 C6.33 20.22, 6.84 12.51, 21.51 -1.59 M1.04 23.6 C8.04 16.68, 14.91 6.52, 20.96 0.67 M-1.28 28.79 C9.11 19.55, 17.89 9.94, 25.33 0.53 M1 30.41 C8.17 21.83, 14.78 12.01, 26.77 0.7 M1.27 36.01 C6.92 27.17, 16.21 20.91, 29.92 1.13 M0.6 37.86 C8.85 26.75, 18.26 16.42, 32.17 0.42 M3.73 40.41 C13.48 24.65, 28.05 9.92, 38.15 1.13 M2.52 38.74 C10.33 31.08, 18.76 22.24, 36.25 -0.64 M8.13 39.69 C20.5 23.02, 34.96 8.72, 41.64 -0.49 M9.28 39.07 C20.04 25.01, 31.93 11.85, 40.24 1.26 M13.31 38.07 C23.99 27.01, 32.91 18.85, 41.5 9.34 M13.56 39.63 C18.43 33.7, 24.43 27.87, 41.19 7.13 M20.12 40.1 C27.75 28.49, 35.14 18.97, 38.82 13.44 M18.42 38.61 C24.23 32.53, 29.07 26.86, 41.45 13.85 M22.25 40.89 C32.41 30.24, 38.67 24.75, 40.18 20.72 M23.05 38.97 C27.99 33.57, 33.26 30.38, 41.23 19.58 M28.8 38.94 C32.76 33.9, 37.89 31, 41.55 25.94 M28.47 40.07 C32.5 34.86, 35.92 29.81, 41.49 26.43 M35.44 39.67 C37.32 37.36, 37.82 34.79, 40.25 31.08 M34.45 39.25 C36.73 37.14, 39.64 33.81, 41.54 32.06 M-0.21 36.82 C-0.21 36.82, -0.21 36.82, -0.21 36.82 M-0.21 36.82 C-0.21 36.82, -0.21 36.82, -0.21 36.82 M5.64 37.07 C3.25 34.52, 1.9 32.8, 0.82 31.36 M6.07 37.28 C4.41 35.82, 2.99 34.81, 0.07 32.2 M12.47 36.01 C5.99 31.97, 2.26 27.42, -1.22 26.03 M12.37 36.07 C6.87 33.53, 2.63 28.53, -0.93 26.57 M19.29 37.73 C12.8 31.2, 9.59 29.67, 1.14 20.74 M17.83 36.21 C10.61 30.68, 3.28 25.38, 0.2 21.5 M23.11 36.6 C18.85 32.2, 14.68 28.26, 0.12 14.19 M25.11 37.28 C17.25 31.92, 11.44 24.89, 0.36 15.88 M29.81 37.89 C21.54 28.25, 13.15 18.79, -1.59 9.8 M30.36 37.64 C22.67 29.96, 14.54 24.14, 0.67 9.76 M36.84 38.58 C25.02 27.21, 13.88 17.61, -0.63 3.99 M37.65 36.51 C23.68 26.19, 12.41 14.93, 0.23 4.2 M40.55 35.29 C24.73 22.26, 9.58 8.23, -1.19 1.38 M41.27 34.89 C24.2 21.38, 9.71 6.75, 0.89 -0.4 M39.46 30.83 C33.04 22.94, 27.78 17.78, 7.75 1.4 M40.09 29.14 C29.99 21.67, 18.85 12.24, 7.1 -0.63 M39.11 26.14 C35.01 17.56, 23.49 11.55, 10.57 -1.43 M41.28 23.92 C29.48 15.45, 20.23 6.45, 12.97 -0.89 M39.66 17.83 C35.73 14.47, 28.86 7.93, 19.41 -1.83 M41.02 18.69 C34.74 14.26, 28.39 7.01, 17.74 -0.6 M39.74 12.7 C34.73 10.89, 30.19 3.74, 24.8 0.44 M41.26 13.26 C37.67 11.54, 32.59 8.19, 23.38 -1.12 M40.37 8.47 C39.03 6.44, 35.54 6, 31.32 -0.15 M40.6 7.86 C36.78 5.52, 33.51 1.81, 29.97 0.33 M40.8 3.87 C39.78 2.97, 38.75 1.76, 36.8 -0.29 M40.52 3.55 C39.86 2.63, 38.79 1.99, 37.17 0.19" stroke="#d559e3" stroke-width="0.5" fill="none"></path><path d="M-0.24 0.66 C11.9 0.72, 26.16 0.53, 38 -1.62 M0.58 -0.42 C8.87 -0.02, 17.68 0.15, 39.91 -0.73 M39.16 0.2 C38.01 13.32, 40.03 26.57, 37.77 38.77 M39.13 0.68 C39.85 9.46, 38.58 19.8, 38.97 37.11 M40.78 35.78 C31.91 36.72, 24.42 36.01, 0.98 38.32 M39.29 36.85 C25.41 36.5, 11.2 37.91, 0.66 36.06 M-1.63 36.24 C-0.04 28.81, -0.11 18.06, -1.68 -0.06 M0.19 36.87 C-1.04 30.08, 0.34 21.3, -0.84 0.39" stroke="#000000" stroke-width="1" fill="none"></path></g><g stroke-linecap="round" transform="translate(329.5 86.5) rotate(0 19.5 18.5)"><path d="M0 0 C0 0, 0 0, 0 0 M0 0 C0 0, 0 0, 0 0 M-1.05 5.76 C0.92 5.61, 2.46 4, 5.67 -0.37 M-0.5 6.02 C1.56 4.42, 3.49 2.18, 5.35 0.07 M-1.23 12.36 C1.88 8.74, 7.49 3.9, 9.91 1.46 M0.23 11.43 C4.39 7.77, 7.51 4.11, 10.25 0.32 M-0.73 19.92 C6.46 11.71, 10.9 2.93, 13.93 1.15 M-0.59 18.56 C3.16 13.7, 7.41 11.46, 15.55 0.68 M1.32 24.9 C5.99 14.91, 13.95 10.24, 20.39 -0.93 M-0.72 24.7 C5.38 16.65, 10.97 12.17, 22.25 -0.09 M0.56 31.52 C8.92 23.54, 13.14 13.9, 27.16 -1.33 M0.64 30.92 C6.33 22.98, 14.96 14.01, 25.48 0.33 M-1.5 35.08 C13.36 23.48, 24.48 8.43, 32.47 -0.58 M-0.04 35.95 C7.49 27.98, 15.12 20.64, 31.85 -0.03 M0.83 39.29 C10.96 30.43, 15.66 22.35, 35.48 1.27 M3.04 40.29 C8.81 30.87, 15.95 23.15, 37.04 -0.37 M8.88 37.83 C21.05 26.52, 29.93 14.32, 42.24 2.07 M7.47 38.74 C15.31 29.99, 23.33 21.28, 40.75 1.39 M14.91 38.84 C21.16 33.87, 24.63 24.16, 42.4 9.66 M12.94 39.92 C18.6 33.2, 26.04 24.66, 40.49 7.65 M19.34 38.62 C24.96 34.69, 28.65 27.98, 39.74 13.49 M19.44 38.93 C24.94 33.12, 30.82 25.45, 40.99 13.78 M25.51 39.92 C28.81 32.67, 32.38 30.86, 41.63 20.99 M23.06 38.66 C30.2 33.06, 34.82 26.29, 40.79 19.43 M30.19 40.56 C31.82 36.18, 36.4 30.86, 39.23 25.38 M29.52 39.58 C32.56 35.09, 37.78 30.31, 41.13 25.42 M35.43 38.79 C37.18 37.73, 38.8 34.36, 41.2 30.88 M35.07 39.1 C35.69 38.21, 37.14 36.11, 41.47 31.41 M-0.21 36.82 C-0.21 36.82, -0.21 36.82, -0.21 36.82 M-0.21 36.82 C-0.21 36.82, -0.21 36.82, -0.21 36.82 M5.5 37.46 C3.34 34.39, 0.98 33.39, 0.47 31.32 M6.39 36.99 C5.31 36.17, 4.04 34.79, -0.14 31.6 M11.97 37.17 C7.52 32.64, 4.97 29.93, -0.73 25.92 M11.99 36.14 C8.02 33.67, 4.27 30.88, -0.19 25.88 M19.5 37.59 C11.17 29.67, 2.45 24.28, 1.19 21.49 M17.4 36.56 C12.47 33.32, 6.95 27.97, 0.94 21.26 M25.81 35.59 C17.35 30.6, 9.29 25.09, 1.23 14.39 M24.47 36.74 C18.3 31.45, 11.83 26.07, -0.84 15.21 M31.35 35.36 C23.16 30.86, 14.86 22.2, 0 9.55 M29.65 37.53 C23.02 28.44, 13.16 22.52, -0.4 9.65 M38.36 36.4 C23.01 27.63, 14.68 15.68, 0.79 4.75 M37.32 37.67 C27.06 27.99, 18.53 20.38, -0.9 4.71 M42.1 33.7 C25.38 22.47, 12.42 7.61, 1.45 1.88 M40.04 34.75 C30.98 25.81, 20.03 17.15, -0.77 -1.05 M42.17 28.34 C31 22.2, 21.25 13.59, 5.18 1.5 M40.87 28.78 C28.96 19.33, 18.01 10.49, 6.04 0.99 M39.27 23.4 C30.26 15.44, 18.25 4.9, 10.68 -0.85 M41.1 25.12 C29.36 15.84, 19.45 6.45, 11.24 0.72 M38.86 17.5 C30.21 10.37, 25.7 4.94, 18.49 1.01 M40.98 19.03 C35.23 13.77, 29.56 9.37, 17.55 0.02 M39 15.33 C35.06 7.52, 28.86 5.41, 25.7 0.05 M40.48 13.13 C33.75 8.07, 28.14 2.29, 24.39 -0.03 M41.6 8.39 C38.7 5.23, 35.28 3.41, 30.18 -0.45 M40.29 8.97 C37.86 5.9, 35.03 3.92, 30.79 -0.66 M40.49 3.15 C39.51 2.41, 38.24 1.11, 37.28 0.5 M40.72 3.25 C39.63 2.14, 38.13 1.32, 37.14 0" stroke="#d559e3" stroke-width="0.5" fill="none"></path><path d="M-0.07 0.22 C7.49 1.14, 18.78 1.91, 37.78 1.01 M0.49 0.66 C11.56 1.15, 23.02 0.48, 38.85 -0.17 M40.31 -1.88 C38.07 7.68, 39.65 14.62, 38.24 36.88 M38.16 -0.03 C37.99 15.36, 37.98 29.23, 38.87 36.28 M37.32 37.77 C26.91 35.79, 11.78 37.82, -2 37.98 M38.45 37.05 C23.12 36.25, 7.12 37.58, 0.29 37.41 M0.86 37.19 C1.56 25.1, -0.22 14.03, -0.95 -0.76 M0.14 37.92 C0.49 24.6, -0.29 11.71, 0.34 0.26" stroke="#000000" stroke-width="1" fill="none"></path></g><g stroke-linecap="round" transform="translate(390.5 87.5) rotate(0 19.5 18.5)"><path d="M0 0 C0 0, 0 0, 0 0 M0 0 C0 0, 0 0, 0 0 M-0.87 6.79 C0.83 4.91, 2.56 3.53, 5.34 1.13 M0.03 6.47 C1.42 4.32, 2.66 2.47, 5.15 0.05 M0.33 11.85 C2.74 8.7, 9.44 3.21, 11.2 0.32 M0.46 11.57 C2.13 9.09, 5.9 5.83, 10.29 -0.35 M1.1 17.9 C3.06 12.25, 11.95 8.45, 15.57 0.17 M0.39 19.16 C6.52 10.84, 11.81 5.74, 14.81 0.03 M1.14 22.63 C8.05 18.01, 13 7.31, 21.34 1.48 M-0.63 24.96 C8.28 15.6, 15.55 6.53, 21.02 -0.73 M-1.86 31.43 C8.85 20.64, 20.97 8.42, 26.39 -1.29 M-0.1 30.92 C9.27 18.99, 18.93 8.51, 26.75 -0.62 M1.31 34.92 C9.38 22.95, 20.68 13.23, 30.63 0.67 M-0.9 37.61 C8.65 26.05, 17.95 16.58, 32.24 -0.79 M2.03 38.13 C12.03 27.5, 22.34 15.32, 36.92 -1.41 M2.45 40.37 C13.34 27.65, 21.67 17.53, 37.82 -0.57 M9.31 38.05 C22.04 26.89, 31.09 9.9, 40.98 -0.34 M8.18 39.86 C21.6 24.47, 33.84 8.84, 40.87 0.95 M13.1 40.13 C22.83 30.94, 28.73 20.66, 40.17 7.02 M13.63 39.53 C18.43 32.41, 25.72 26.61, 41.54 8.02 M17.5 39.97 C23.55 33.15, 27.27 28.32, 39.93 15.44 M19.46 38.32 C28.41 28.56, 36.7 18.51, 40.22 14.84 M23.55 37.65 C29.46 33.93, 34.77 28.86, 39.34 19.66 M23.41 39.97 C28.34 35.34, 30.83 30.87, 40.11 18.92 M27.94 38.53 C33.95 34.61, 35.67 32.43, 39.23 26.11 M29.83 40.67 C30.85 37.52, 34.12 33.9, 40.2 25.87 M34.56 40.14 C36.12 37.66, 39.28 34.17, 40.58 32.74 M34.89 39.08 C36.08 37.08, 38.51 35.55, 40.89 31.37 M-0.21 36.82 C-0.21 36.82, -0.21 36.82, -0.21 36.82 M-0.21 36.82 C-0.21 36.82, -0.21 36.82, -0.21 36.82 M5.64 36.92 C4.08 34.92, 2.27 33.42, -0.16 32.53 M6.32 37.1 C3.67 34.81, 1.53 33.36, 0.21 31.76 M11.21 35.81 C9.24 31.35, 3.53 30.47, -0.15 25.98 M11.18 36.57 C8.77 33.84, 6.25 32.49, -0.71 26.01 M17.29 37.72 C15.14 35.22, 12.54 29.08, -0.57 20.6 M17.5 37.58 C11.92 31.45, 4.05 24.7, -0.39 20.97 M26.07 39.06 C17.29 30.86, 14.21 26.07, -2.12 15.85 M24.29 36.29 C16.31 30.43, 6.5 22.52, -0.36 15.11 M31.47 36.98 C16.96 28.96, 6.63 15.85, -0.35 11.98 M29.44 36.49 C23.85 32.23, 16.62 26.65, 1.05 10.22 M35.43 38.29 C28.74 31.07, 22.58 22.01, -2.29 4.11 M35.98 36.78 C25.45 26.64, 13.48 16.8, 0.34 5.28 M38.91 35.31 C27.2 25.07, 16.34 12.25, 1.62 1.4 M40.13 35.58 C25.23 20.7, 8.6 6.52, -0.28 0.69 M41.18 28.41 C31.32 21.14, 20.78 10.03, 8.26 1.76 M39.61 28.75 C30.07 22.34, 21.71 13.4, 6.92 -0.09 M40.63 26.01 C33.29 20.91, 28.14 11.52, 12 0.02 M41.38 24.51 C30.22 15.24, 21.62 8.27, 12.28 0.67 M38.42 18.02 C32.28 13.45, 24.82 7.33, 19.08 -0.32 M40.32 19.93 C33.69 14.49, 28.21 8.75, 18.19 -0.27 M42.28 14.44 C35.18 9.68, 31.4 6.81, 22.28 1.02 M40.07 14.51 C35.96 10.22, 30.64 5.83, 24.73 -0.04 M39.15 9.51 C35.43 4.89, 33 3.06, 29.52 0.26 M40.09 8.09 C36.61 5.48, 32.48 2.11, 30.65 0.42 M40.51 3.55 C39.3 2.29, 38.32 0.9, 37.15 0.08 M40.54 3.64 C39.67 2.59, 39.04 1.95, 37.05 0.15" stroke="#d559e3" stroke-width="0.5" fill="none"></path><path d="M-0.06 -1.95 C13.01 -1.65, 23.02 0.07, 37.56 1.13 M0.39 0.91 C13.79 0.62, 29.06 -0.67, 39.49 0.99 M39.1 -0.64 C37.71 11.9, 40.37 27.4, 39.81 37.37 M39.09 0.96 C39.13 14.8, 39.48 28.98, 38.62 37.38 M40.85 37.69 C29.09 36.17, 18.19 37.73, 0.53 35.9 M39.89 37.96 C30.46 36.95, 20.65 36.65, 0.52 36.22 M0.79 36.33 C-2.14 24.78, 1.02 13.46, 1.36 -1.02 M-0.79 36.77 C0.98 29.23, 0.85 22.19, -0.92 0.39" stroke="#000000" stroke-width="1" fill="none"></path></g><g stroke-linecap="round" transform="translate(189 202) rotate(0 18.5 18.5)"><path d="M20.8 1.14 C24.58 1.37, 30.38 2.47, 32.94 5.31 C35.5 8.14, 36.29 13.96, 36.17 18.16 C36.04 22.36, 34.55 27.49, 32.21 30.52 C29.87 33.54, 25.75 35.7, 22.13 36.33 C18.5 36.95, 13.83 35.96, 10.43 34.27 C7.03 32.59, 3.31 29.96, 1.72 26.23 C0.14 22.49, -0.19 15.63, 0.94 11.84 C2.08 8.04, 5.02 5.35, 8.55 3.46 C12.08 1.57, 19.91 1.03, 22.13 0.49 C24.35 -0.06, 22.08 -0.15, 21.85 0.19 M10.9 1.52 C14.12 -0.11, 20.02 -1.75, 24.06 -0.3 C28.1 1.14, 33.02 6.54, 35.13 10.2 C37.24 13.86, 37.37 18.1, 36.72 21.63 C36.06 25.16, 34.35 28.67, 31.19 31.37 C28.04 34.06, 21.69 37.64, 17.78 37.78 C13.86 37.92, 10.8 34.75, 7.71 32.18 C4.62 29.61, -0.06 26.18, -0.79 22.34 C-1.52 18.5, 1.36 12.74, 3.32 9.14 C5.27 5.55, 9.46 1.76, 10.94 0.74 C12.43 -0.27, 12.27 2.53, 12.24 3.07" stroke="none" stroke-width="0" fill="#f17d32"></path><path d="M21.42 0.61 C25.19 1, 30.41 2.9, 32.91 6.03 C35.41 9.15, 36.58 15.15, 36.41 19.36 C36.24 23.56, 34.19 28.21, 31.91 31.25 C29.63 34.28, 26.44 36.94, 22.72 37.56 C18.99 38.19, 13.15 37.01, 9.55 34.98 C5.94 32.95, 2.63 29.15, 1.09 25.39 C-0.45 21.62, -1.11 16.25, 0.32 12.39 C1.75 8.53, 5.31 4.07, 9.67 2.22 C14.03 0.37, 23.29 0.98, 26.48 1.29 C29.67 1.61, 28.91 3.76, 28.82 4.09 M24.23 -0.41 C27.79 0.79, 30.96 5.1, 33.26 8.78 C35.56 12.46, 38.33 17.49, 38.05 21.67 C37.77 25.85, 35.07 31.21, 31.61 33.87 C28.15 36.52, 21.57 37.97, 17.27 37.59 C12.97 37.2, 8.8 34.4, 5.82 31.54 C2.85 28.68, -0.02 24.1, -0.59 20.42 C-1.15 16.74, 0.23 12.77, 2.44 9.46 C4.64 6.15, 8.7 2.12, 12.63 0.54 C16.57 -1.04, 24.03 -0.18, 26.06 -0.02 C28.08 0.14, 25.14 1.25, 24.78 1.51" stroke="#000000" stroke-width="1" fill="none"></path></g><g stroke-linecap="round" transform="translate(247.5 176.5) rotate(0 18.5 18.5)"><path d="M20.88 0.82 C24.66 1.26, 30.57 3.11, 33.13 6.07 C35.68 9.03, 36.16 14.59, 36.21 18.58 C36.25 22.57, 35.89 27.05, 33.39 30.01 C30.89 32.97, 25.19 35.43, 21.22 36.33 C17.24 37.23, 13.05 37.24, 9.53 35.41 C6.02 33.59, 1.55 29.42, 0.11 25.38 C-1.34 21.34, -0.64 14.83, 0.87 11.15 C2.38 7.47, 4.98 4.96, 9.17 3.3 C13.35 1.63, 22.89 1.11, 25.99 1.16 C29.09 1.2, 28.07 3.23, 27.74 3.57 M21.78 1.35 C25.41 1.67, 31.88 3.51, 34.33 6.66 C36.78 9.82, 37.03 15.98, 36.48 20.29 C35.94 24.6, 33.66 29.94, 31.04 32.53 C28.43 35.12, 24.5 35.45, 20.78 35.84 C17.06 36.23, 12.16 37.15, 8.74 34.87 C5.33 32.59, 1.43 25.99, 0.27 22.16 C-0.89 18.32, -0.12 15.04, 1.79 11.85 C3.7 8.66, 8.32 5.1, 11.75 3 C15.18 0.91, 20.22 -0.49, 22.34 -0.72 C24.47 -0.95, 24.33 1.11, 24.5 1.6" stroke="none" stroke-width="0" fill="#f17d32"></path><path d="M25.6 0.86 C29.17 1.99, 32.81 5.88, 34.61 9.61 C36.42 13.33, 37.26 19.29, 36.42 23.22 C35.59 27.14, 32.7 30.99, 29.62 33.16 C26.54 35.33, 21.93 36.45, 17.93 36.22 C13.94 35.98, 8.65 34.54, 5.66 31.74 C2.66 28.93, 0.34 23.51, -0.02 19.4 C-0.38 15.28, 1.15 10.07, 3.47 7.03 C5.79 3.99, 9.56 1.76, 13.88 1.15 C18.2 0.53, 26.13 2.3, 29.37 3.35 C32.62 4.4, 33.63 7.27, 33.35 7.45 M19.6 -0.42 C23.76 -0.66, 29.43 1.34, 32.43 4.39 C35.42 7.44, 37.31 14.02, 37.55 17.89 C37.79 21.75, 36.26 24.33, 33.88 27.58 C31.5 30.82, 27.02 36.01, 23.26 37.36 C19.51 38.71, 15.08 37.63, 11.35 35.69 C7.61 33.76, 2.86 29.24, 0.84 25.75 C-1.17 22.26, -1.67 18.29, -0.75 14.76 C0.18 11.22, 3.17 7.12, 6.38 4.55 C9.59 1.98, 16.27 0.07, 18.51 -0.65 C20.75 -1.37, 19.86 -0.35, 19.83 0.23" stroke="#000000" stroke-width="1" fill="none"></path></g><g stroke-linecap="round" transform="translate(318.5 207.5) rotate(0 18.5 18.5)"><path d="M24.67 1.6 C28.53 2.31, 32.94 4.33, 35.05 7.64 C37.15 10.95, 38.14 17.41, 37.31 21.46 C36.49 25.5, 33.12 29.37, 30.12 31.9 C27.13 34.43, 23.07 36.35, 19.35 36.62 C15.63 36.9, 11.08 35.83, 7.81 33.56 C4.53 31.29, 0.5 26.97, -0.31 22.98 C-1.12 18.99, 1.1 13.23, 2.94 9.64 C4.78 6.04, 6.7 2.61, 10.74 1.42 C14.78 0.22, 24.09 2.28, 27.16 2.48 C30.22 2.68, 29.54 2.31, 29.13 2.62 M22.72 0.04 C26.2 0.77, 29.79 4.78, 32.05 8.01 C34.3 11.24, 36.44 15.49, 36.25 19.41 C36.06 23.33, 33.51 28.5, 30.89 31.55 C28.27 34.6, 23.98 37.26, 20.5 37.7 C17.03 38.14, 13.31 36.6, 10.06 34.17 C6.82 31.73, 2.35 27.05, 1.03 23.09 C-0.28 19.12, 0.96 13.89, 2.17 10.38 C3.39 6.87, 4.85 3.78, 8.31 2.03 C11.78 0.28, 20.88 0.1, 22.95 -0.12 C25.02 -0.34, 21.09 0.18, 20.74 0.69" stroke="none" stroke-width="0" fill="#f17d32"></path><path d="M23.89 0 C27.8 0.98, 32.3 4.68, 34.42 8.25 C36.53 11.81, 37.19 17.35, 36.58 21.37 C35.96 25.39, 33.42 29.77, 30.75 32.37 C28.08 34.96, 24.59 36.83, 20.58 36.95 C16.58 37.07, 9.93 35.39, 6.71 33.07 C3.49 30.74, 2.02 26.91, 1.25 22.99 C0.48 19.06, 0.57 13.24, 2.11 9.52 C3.65 5.8, 6.26 2.05, 10.49 0.69 C14.71 -0.68, 24.14 0.85, 27.46 1.33 C30.78 1.8, 30.71 3.12, 30.43 3.54 M18.9 -0.07 C22.94 -0.63, 27.29 1.83, 30.08 3.99 C32.86 6.14, 34.65 8.97, 35.6 12.88 C36.56 16.78, 37.6 23.84, 35.83 27.41 C34.05 30.98, 28.72 32.63, 24.95 34.29 C21.18 35.95, 16.97 38.41, 13.21 37.37 C9.45 36.32, 4.68 31.44, 2.39 28.03 C0.11 24.61, -1.27 20.95, -0.47 16.88 C0.33 12.8, 4.05 6.44, 7.19 3.57 C10.32 0.69, 16.87 0.19, 18.34 -0.37 C19.81 -0.94, 15.93 -0.43, 16.01 0.19" stroke="#000000" stroke-width="1" fill="none"></path></g><g stroke-linecap="round" transform="translate(254.5 246.5) rotate(0 18.5 18.5)"><path d="M24.12 2.06 C27.65 3.34, 32.96 6.44, 35.03 9.8 C37.11 13.15, 37.39 18.48, 36.55 22.2 C35.71 25.92, 32.94 29.75, 30 32.14 C27.06 34.52, 22.82 36.59, 18.93 36.5 C15.04 36.42, 9.71 34.18, 6.67 31.61 C3.64 29.04, 1.31 24.7, 0.72 21.09 C0.14 17.49, 1.24 13.28, 3.17 9.95 C5.11 6.62, 8.2 2.17, 12.33 1.12 C16.45 0.07, 24.84 2.99, 27.92 3.64 C30.99 4.29, 30.84 4.78, 30.78 5.02 M14.31 1.03 C18 0.22, 22.73 0.92, 26.44 2.86 C30.15 4.8, 34.83 9.23, 36.59 12.66 C38.36 16.09, 38.59 20.02, 37.04 23.43 C35.48 26.84, 30.85 30.88, 27.26 33.13 C23.66 35.38, 19.46 37.32, 15.48 36.95 C11.49 36.58, 5.97 33.76, 3.34 30.92 C0.71 28.07, -0.53 24.1, -0.3 19.88 C-0.06 15.66, 1.94 8.8, 4.73 5.6 C7.52 2.39, 14.77 1.34, 16.46 0.65 C18.14 -0.04, 14.85 1.12, 14.85 1.45" stroke="none" stroke-width="0" fill="#f17d32"></path><path d="M11.13 1.46 C14.41 -0.17, 20.17 -1.27, 24.12 0.1 C28.07 1.48, 32.71 6.15, 34.82 9.7 C36.92 13.26, 37.37 17.79, 36.75 21.45 C36.13 25.11, 34.17 28.99, 31.08 31.66 C28 34.34, 22.16 37.38, 18.23 37.52 C14.3 37.65, 10.61 35.01, 7.51 32.48 C4.4 29.94, 0.37 26.19, -0.39 22.34 C-1.16 18.48, 0.66 13.05, 2.94 9.36 C5.21 5.68, 11.05 1.55, 13.27 0.24 C15.49 -1.08, 16.29 1.01, 16.27 1.48 M17.28 1.65 C21.22 0.92, 25.04 0.94, 28.33 2.73 C31.63 4.52, 35.76 8.46, 37.05 12.38 C38.33 16.31, 37.52 22.31, 36.04 26.29 C34.56 30.26, 32.02 34.38, 28.2 36.21 C24.37 38.05, 17.02 38.57, 13.08 37.31 C9.14 36.04, 6.81 31.84, 4.56 28.61 C2.31 25.39, -0.38 21.57, -0.43 17.97 C-0.48 14.37, 1.41 10.17, 4.26 7.02 C7.11 3.87, 14.55 -0.04, 16.66 -0.92 C18.76 -1.8, 17.03 1.45, 16.9 1.75" stroke="#000000" stroke-width="1" fill="none"></path></g><g stroke-linecap="round"><g transform="translate(223 211) rotate(0 12.74382604360585 -3.773049104213726)"><path d="M-0.79 -0.28 C3.53 -1.46, 21.74 -5.83, 26.27 -7.27" stroke="black" stroke-width="1.5" fill="none" stroke-dasharray="1.5 7"></path></g></g><g stroke-linecap="round"><g transform="translate(225 226) rotate(0 46.86318906545637 2.0993786454200745)"><path d="M-0.26 -0.1 C15.35 0.5, 78.4 3.38, 93.98 4.3" stroke="black" stroke-width="1.5" fill="none" stroke-dasharray="1.5 7"></path></g></g><g stroke-linecap="round"><g transform="translate(277 249) rotate(0 -3.331088125705719 -18.354915940761572)"><path d="M-0.89 0.13 C-2.03 -6.2, -4.97 -30.96, -5.77 -36.84" stroke="black" stroke-width="1.5" fill="none" stroke-dasharray="1.5 7"></path></g></g><g stroke-linecap="round"><g transform="translate(263 254) rotate(0 -19.51468652486801 -9.233241903781902)"><path d="M-1.06 -0.52 C-7.57 -3.31, -31.7 -14.73, -37.97 -17.95" stroke="black" stroke-width="1.5" fill="none" stroke-dasharray="1.5 7"></path></g></g><g stroke-linecap="round"><g transform="translate(282 201) rotate(0 18.55118986368177 8.58590978384018)"><path d="M-0.69 -1.05 C5.66 2.17, 31.33 14.75, 37.79 18.23" stroke="black" stroke-width="1.5" fill="none" stroke-dasharray="1.5 7"></path></g></g><g stroke-linecap="round"><g transform="translate(291 255) rotate(0 13.374991738796211 -10.573776566982275)"><path d="M0.21 1.05 C4.58 -2.59, 22.25 -18.25, 26.54 -22.2" stroke="black" stroke-width="1.5" fill="none" stroke-dasharray="1.5 7"></path></g></g><g stroke-linecap="round"><g transform="translate(197 205) rotate(0 -20.09212018251418 -39.833330142498)"><path d="M1.94 0.5 C-5.51 -13.14, -35.03 -67.31, -42.13 -80.17 M-0.44 -1.69 C-7.26 -15.12, -29.83 -63.98, -36.88 -77.18" stroke="black" stroke-width="1" fill="none"></path></g></g><g stroke-linecap="round"><g transform="translate(212 203) rotate(0 33.23438562866767 -39.051318583381345)"><path d="M0.04 -0.84 C11.4 -13.9, 56.62 -66.51, 67.87 -79.43 M-1.4 1.33 C9.82 -11.47, 55.53 -64.51, 66.86 -78.12" stroke="black" stroke-width="1" fill="none"></path></g></g><g stroke-linecap="round"><g transform="translate(259 179) rotate(0 -21.385627726498058 -28.76598578785081)"><path d="M-0.13 -0.43 C-7.04 -9.51, -34.6 -46.21, -41.46 -55.33 M-1.65 -1.7 C-8.77 -11.05, -35.9 -47.87, -42.64 -57.1" stroke="black" stroke-width="1" fill="none"></path></g></g><g stroke-linecap="round"><g transform="translate(283 252) rotate(0 32.14795316457747 -64.09725673530718)"><path d="M-0.46 0.67 C10.36 -20.46, 53.79 -105.71, 64.75 -127.17 M1.51 -0.03 C12.15 -21.45, 53.13 -107.72, 63.67 -128.86" stroke="black" stroke-width="1" fill="none"></path></g></g><g stroke-linecap="round"><g transform="translate(348 208) rotate(0 29.54453099966048 -41.1441153883934)"><path d="M-0.25 0.83 C9.72 -13.14, 49.62 -69.2, 59.34 -83.11 M1.82 0.21 C11.7 -13.61, 48.79 -67.47, 58.57 -81.64" stroke="black" stroke-width="1" fill="none"></path></g></g><g stroke-linecap="round" transform="translate(114.5 71.5) rotate(0 166.5 36.5)"><path d="M18.25 0 M18.25 0 C107.5 -2.35, 198.24 -3.15, 314.75 0 M18.25 0 C86.2 0.1, 154.76 -0.39, 314.75 0 M314.75 0 C327.17 1.97, 333.51 5.87, 333 18.25 M314.75 0 C325.84 1.79, 333.31 7.18, 333 18.25 M333 18.25 C330.82 32.84, 332.75 43.64, 333 54.75 M333 18.25 C332.5 29.1, 333.81 40.36, 333 54.75 M333 54.75 C334.06 67.77, 325.48 73.88, 314.75 73 M333 54.75 C333.46 64.81, 328.91 73.68, 314.75 73 M314.75 73 C223.88 74.25, 132.66 75.6, 18.25 73 M314.75 73 C221.02 73.48, 127.05 72.57, 18.25 73 M18.25 73 C5.75 73.88, 1.51 66.72, 0 54.75 M18.25 73 C4.54 72.27, -1.04 66.47, 0 54.75 M0 54.75 C1.28 43.74, -0.54 34.36, 0 18.25 M0 54.75 C0.42 44.24, 0.33 32.11, 0 18.25 M0 18.25 C-0.32 7.12, 7.36 0.24, 18.25 0 M0 18.25 C0.1 5.51, 4.83 1.22, 18.25 0" stroke="#c91e85" stroke-width="2" fill="none"></path></g><g stroke-linecap="round"><g transform="translate(83 107.43941901990752) rotate(0 15 1.9924939062058797)"><path d="M0 0 C5 0.66, 25 3.32, 30 3.98 M0 0 C5 0.66, 25 3.32, 30 3.98" stroke="black" stroke-width="2" fill="none"></path></g><g transform="translate(83 107.43941901990752) rotate(0 15 1.9924939062058797)"><path d="M15.22 7.24 C19.91 6.21, 24.6 5.18, 30 3.98 M15.22 7.24 C19.04 6.4, 22.86 5.56, 30 3.98" stroke="black" stroke-width="2" fill="none"></path></g><g transform="translate(83 107.43941901990752) rotate(0 15 1.9924939062058797)"><path d="M16.59 -3.02 C20.84 -0.8, 25.09 1.42, 30 3.98 M16.59 -3.02 C20.05 -1.21, 23.52 0.6, 30 3.98" stroke="black" stroke-width="2" fill="none"></path></g></g><g transform="translate(10 95) rotate(0 33 13)"><text x="0" y="18" font-family="Virgil, Segoe UI Emoji" font-size="20px" fill="black" text-anchor="start" style="white-space: pre;" direction="ltr">thread</text></g><g stroke-linecap="round"><g transform="translate(316.07777603786076 56.76554643513754) rotate(0 -12.762846579775442 14.80332687726775)"><path d="M0 0 C-4.25 4.93, -21.27 24.67, -25.53 29.61 M0 0 C-4.25 4.93, -21.27 24.67, -25.53 29.61" stroke="black" stroke-width="2" fill="none"></path></g><g transform="translate(316.07777603786076 56.76554643513754) rotate(0 -12.762846579775442 14.80332687726775)"><path d="M-18.6 11.33 C-20.9 17.42, -23.21 23.51, -25.53 29.61 M-18.6 11.33 C-20.96 17.56, -23.32 23.79, -25.53 29.61" stroke="black" stroke-width="2" fill="none"></path></g><g transform="translate(316.07777603786076 56.76554643513754) rotate(0 -12.762846579775442 14.80332687726775)"><path d="M-8.47 20.06 C-14.15 23.24, -19.83 26.42, -25.53 29.61 M-8.47 20.06 C-14.28 23.32, -20.1 26.57, -25.53 29.61" stroke="black" stroke-width="2" fill="none"></path></g></g><g transform="translate(285.5017666476191 26.16704104090337) rotate(0 56.5 13)"><text x="0" y="18" font-family="Virgil, Segoe UI Emoji" font-size="20px" fill="black" text-anchor="start" style="white-space: pre;" direction="ltr">contribution</text></g><g stroke-linecap="round"><g transform="translate(159.36146569296488 242.89708001789052) rotate(0 13.336469462821924 -6.085777653458706)"><path d="M0 0 C4.45 -2.03, 22.23 -10.14, 26.67 -12.17 M0 0 C4.45 -2.03, 22.23 -10.14, 26.67 -12.17" stroke="black" stroke-width="2" fill="none"></path></g><g transform="translate(159.36146569296488 242.89708001789052) rotate(0 13.336469462821924 -6.085777653458706)"><path d="M16.22 -1.89 C18.89 -4.51, 21.55 -7.13, 26.67 -12.17 M16.22 -1.89 C20.35 -5.95, 24.47 -10.01, 26.67 -12.17" stroke="black" stroke-width="2" fill="none"></path></g><g transform="translate(159.36146569296488 242.89708001789052) rotate(0 13.336469462821924 -6.085777653458706)"><path d="M12.06 -11.01 C15.78 -11.31, 19.51 -11.6, 26.67 -12.17 M12.06 -11.01 C17.83 -11.47, 23.59 -11.93, 26.67 -12.17" stroke="black" stroke-width="2" fill="none"></path></g></g><g transform="translate(44.5 234.6277998103269) rotate(0 54 13)"><text x="0" y="18" font-family="Virgil, Segoe UI Emoji" font-size="20px" fill="black" text-anchor="start" style="white-space: pre;" direction="ltr">contributor</text></g><g stroke-opacity="0.5" fill-opacity="0.5" stroke-linecap="round" transform="translate(253.5 311.5) rotate(0 18.5 18.5)"><path d="M31.17 3.22 C34.71 4.9, 37.83 9.9, 38.25 13.74 C38.68 17.58, 36.16 22.66, 33.7 26.24 C31.24 29.82, 26.83 33.33, 23.52 35.22 C20.21 37.11, 17.29 38.71, 13.83 37.58 C10.38 36.45, 5.13 32.17, 2.79 28.43 C0.45 24.7, -0.62 18.95, -0.19 15.16 C0.24 11.36, 2.6 8.24, 5.4 5.67 C8.2 3.1, 11.48 -1.43, 16.63 -0.28 C21.77 0.86, 33.05 8.75, 36.27 12.55 C39.49 16.34, 36.63 22.49, 35.95 22.5 M32.24 6.33 C34.94 9.18, 34.82 14.2, 35.12 18.04 C35.41 21.88, 36.23 25.84, 34.01 29.35 C31.8 32.86, 25.78 37.75, 21.84 39.11 C17.89 40.47, 13.85 40.27, 10.34 37.51 C6.84 34.74, 2.15 26.35, 0.79 22.53 C-0.58 18.72, 0.9 17.78, 2.16 14.6 C3.42 11.43, 5.54 5.5, 8.35 3.48 C11.17 1.47, 15.05 1.86, 19.08 2.53 C23.11 3.2, 30.02 7, 32.54 7.49 C35.06 7.98, 34.45 5.36, 34.19 5.47" stroke="none" stroke-width="0" fill="#f17d32"></path><path d="M27.15 2.55 C30.79 4.57, 34.54 8.62, 35.76 12.33 C36.97 16.05, 35.63 21.18, 34.43 24.83 C33.23 28.48, 31.64 32.27, 28.56 34.22 C25.47 36.18, 20.2 37.29, 15.9 36.55 C11.61 35.82, 5.54 33.17, 2.78 29.81 C0.02 26.45, -0.72 20.08, -0.65 16.41 C-0.58 12.74, 0.35 10.56, 3.2 7.79 C6.06 5.03, 11.93 0.24, 16.46 -0.19 C20.98 -0.62, 27.72 4.23, 30.35 5.21 C32.98 6.2, 32.44 5.72, 32.24 5.72 M27.96 5.87 C31.32 7.78, 35.69 9.06, 37.24 12.91 C38.79 16.76, 39.28 25.29, 37.25 28.96 C35.23 32.64, 29.44 33.4, 25.11 34.97 C20.78 36.53, 15.01 39.18, 11.26 38.36 C7.52 37.53, 4.04 33.48, 2.62 30.03 C1.2 26.59, 2.09 22.16, 2.76 17.69 C3.43 13.22, 4.63 5.99, 6.64 3.23 C8.66 0.48, 10.67 1.19, 14.85 1.15 C19.02 1.1, 29.66 2.29, 31.69 2.94 C33.73 3.59, 27.88 4.74, 27.06 5.03" stroke="#000000" stroke-width="1" fill="none"></path></g><g stroke-opacity="0.5" fill-opacity="0.5" stroke-linecap="round" transform="translate(335.5 289.5) rotate(0 18.5 18.5)"><path d="M26.89 1.63 C30.18 2.83, 33.44 6.68, 34.83 10.81 C36.22 14.94, 36.21 22.43, 35.24 26.43 C34.27 30.43, 32.34 33.16, 29.02 34.8 C25.69 36.44, 19.53 37.18, 15.29 36.25 C11.06 35.32, 5.96 32.48, 3.59 29.22 C1.22 25.96, 0.97 20.43, 1.09 16.68 C1.2 12.93, 1.78 9.52, 4.26 6.72 C6.74 3.93, 10.6 -0.76, 15.97 -0.09 C21.33 0.58, 33.28 6.21, 36.46 10.73 C39.64 15.25, 35.63 26.73, 35.05 27.03 M18.47 0.95 C22.1 0.91, 26.23 1.28, 29.68 3.73 C33.14 6.18, 37.92 11.78, 39.19 15.66 C40.46 19.55, 40.14 23.47, 37.3 27.04 C34.46 30.61, 25.99 35.64, 22.14 37.06 C18.29 38.49, 17.35 37.44, 14.2 35.58 C11.06 33.72, 5.2 29.19, 3.26 25.88 C1.33 22.58, 1.83 18.95, 2.59 15.74 C3.35 12.54, 5.34 9.26, 7.81 6.65 C10.28 4.04, 15.51 1.14, 17.39 0.08 C19.27 -0.98, 18.84 -0.41, 19.08 0.26" stroke="none" stroke-width="0" fill="#f17d32"></path><path d="M12.26 -0.31 C15.7 -1.64, 21.1 0.31, 24.75 2.03 C28.41 3.75, 32.21 6.96, 34.18 10 C36.15 13.04, 37.29 16.59, 36.57 20.26 C35.85 23.94, 33.22 29.45, 29.88 32.04 C26.53 34.63, 20.17 35.52, 16.5 35.8 C12.83 36.08, 10.64 35.92, 7.86 33.71 C5.08 31.5, 0.45 26.37, -0.18 22.53 C-0.81 18.7, 1.68 14.21, 4.08 10.69 C6.48 7.18, 12.34 2.89, 14.21 1.42 C16.08 -0.05, 15.26 1.74, 15.28 1.86 M12.78 2.6 C16.37 0.89, 25.15 -0.8, 28.84 0.01 C32.53 0.82, 33.32 3.82, 34.91 7.46 C36.5 11.11, 39.18 17.12, 38.39 21.89 C37.59 26.67, 33.57 33.33, 30.14 36.09 C26.72 38.85, 22.29 39.41, 17.82 38.43 C13.36 37.45, 6.11 32.72, 3.33 30.22 C0.55 27.73, 1.24 27.37, 1.16 23.46 C1.08 19.54, 0.59 10.68, 2.87 6.73 C5.14 2.78, 13.08 1, 14.82 -0.25 C16.57 -1.51, 13.27 -1.59, 13.34 -0.79" stroke="#000000" stroke-width="1" fill="none"></path></g><g stroke-opacity="0.2" fill-opacity="0.2" stroke-linecap="round" transform="translate(179.5 341.5) rotate(0 18.5 18.5)"><path d="M7.81 5.54 C10.23 2.98, 14.38 0.23, 18.28 0.06 C22.18 -0.11, 28.06 1.66, 31.2 4.51 C34.33 7.37, 36.34 13.31, 37.09 17.19 C37.85 21.06, 38 24.34, 35.72 27.76 C33.44 31.18, 27.61 36.16, 23.41 37.72 C19.2 39.27, 14.19 38.68, 10.49 37.09 C6.79 35.49, 2.81 31.77, 1.2 28.17 C-0.41 24.56, -1.94 19.85, 0.83 15.47 C3.6 11.09, 13.4 4.01, 17.82 1.89 C22.23 -0.23, 27.72 2.9, 27.32 2.74 M11.95 3.7 C15.09 1.02, 19.85 -1.88, 23.73 -0.88 C27.6 0.12, 33.23 6.68, 35.18 9.7 C37.13 12.73, 36.39 14.06, 35.43 17.26 C34.47 20.45, 31.35 25.99, 29.4 28.89 C27.45 31.79, 26.83 33.28, 23.72 34.66 C20.61 36.03, 14.84 38.62, 10.72 37.13 C6.61 35.64, 0.51 30.38, -0.99 25.71 C-2.49 21.05, 0.25 12.72, 1.73 9.15 C3.2 5.57, 6.65 5.37, 7.84 4.28 C9.03 3.19, 8.02 2.49, 8.87 2.58" stroke="none" stroke-width="0" fill="#f17d32"></path><path d="M8.46 1.84 C11.57 -0.81, 18.06 -1, 22.01 -0.51 C25.96 -0.03, 29.5 1.49, 32.16 4.76 C34.82 8.03, 37.98 14.62, 37.96 19.09 C37.94 23.56, 34.42 28.83, 32.02 31.61 C29.62 34.38, 26.96 35.36, 23.55 35.71 C20.13 36.07, 15.39 35.62, 11.53 33.73 C7.67 31.84, 2.43 27.93, 0.38 24.37 C-1.68 20.81, -2.87 15.94, -0.81 12.37 C1.25 8.8, 10.16 4.83, 12.75 2.95 C15.34 1.08, 14.91 1.19, 14.74 1.13 M9.95 2.43 C13.05 0.86, 19.47 -0.31, 23.49 0.07 C27.51 0.45, 31.89 1.01, 34.08 4.71 C36.26 8.42, 37.3 18.05, 36.6 22.3 C35.9 26.56, 32.57 27.79, 29.87 30.25 C27.17 32.71, 24.34 36.46, 20.41 37.08 C16.48 37.71, 9.41 36.33, 6.29 33.99 C3.16 31.65, 2.53 26.46, 1.67 23.04 C0.81 19.62, -0.43 16.57, 1.12 13.49 C2.66 10.41, 9.46 6.92, 10.94 4.56 C12.42 2.2, 9.75 -0.8, 10 -0.66" stroke="#000000" stroke-width="1" fill="none"></path></g><g stroke-opacity="0.1" fill-opacity="0.1" stroke-linecap="round" transform="translate(343.5 359.5) rotate(0 18.5 18.5)"><path d="M9.29 1.67 C12.73 -0.44, 19.85 0.22, 23.93 1.37 C28 2.52, 31.66 5.49, 33.75 8.57 C35.83 11.66, 36.81 16.01, 36.42 19.91 C36.04 23.8, 33.69 28.95, 31.41 31.96 C29.13 34.96, 26.65 37.89, 22.76 37.93 C18.87 37.97, 11.53 34.25, 8.09 32.19 C4.64 30.14, 3.46 29.15, 2.09 25.58 C0.72 22.01, -2.58 15.03, -0.14 10.78 C2.3 6.53, 12.82 1.85, 16.71 0.06 C20.6 -1.74, 23.34 -0.6, 23.22 0 M31.18 8.9 C33.62 12.03, 36.27 15.53, 36.12 18.68 C35.97 21.82, 32.79 24.63, 30.26 27.76 C27.72 30.88, 24.77 36.81, 20.93 37.42 C17.08 38.04, 10.94 33.95, 7.18 31.45 C3.43 28.96, -0.83 25.64, -1.61 22.46 C-2.4 19.29, 0.67 16.25, 2.48 12.39 C4.28 8.54, 5.75 1.11, 9.21 -0.64 C12.67 -2.39, 19.29 0.81, 23.24 1.88 C27.18 2.94, 30.84 4.58, 32.87 5.76 C34.9 6.95, 35.29 8.6, 35.41 8.99" stroke="none" stroke-width="0" fill="#f17d32"></path><path d="M27.85 1.3 C31.59 2.74, 33.92 6.13, 35.66 10.04 C37.41 13.96, 39.23 20.6, 38.31 24.79 C37.4 28.98, 33.88 32.92, 30.19 35.19 C26.49 37.45, 20.52 39.03, 16.15 38.36 C11.77 37.69, 6.71 34.07, 3.95 31.18 C1.19 28.28, -0.22 25.11, -0.42 20.99 C-0.62 16.87, 0.05 9.78, 2.73 6.46 C5.4 3.13, 10.06 -0.11, 15.61 1.04 C21.15 2.18, 33.5 8.45, 36.02 13.32 C38.54 18.2, 31.06 30.19, 30.71 30.31 M9.92 4.08 C12.27 1.84, 15.28 1.68, 18.81 1.42 C22.34 1.16, 28.53 -0.29, 31.1 2.51 C33.66 5.31, 33.22 13.59, 34.19 18.23 C35.17 22.86, 38.33 26.87, 36.93 30.32 C35.53 33.77, 30.39 37.6, 25.8 38.91 C21.2 40.22, 13.49 40.15, 9.36 38.16 C5.23 36.16, 2.37 31.35, 1.01 26.94 C-0.35 22.54, 0.63 15.94, 1.21 11.72 C1.78 7.5, 3.31 2.46, 4.46 1.62 C5.61 0.79, 7.92 5.83, 8.11 6.7" stroke="#000000" stroke-width="1" fill="none"></path></g><g stroke-opacity="0.1" fill-opacity="0.1" stroke-linecap="round" transform="translate(270.5 386.5) rotate(0 18.5 18.5)"><path d="M17.13 1.05 C20.82 0.71, 28.16 2.08, 31.31 4.62 C34.47 7.16, 35.27 12.1, 36.07 16.27 C36.87 20.45, 37.67 26.35, 36.12 29.67 C34.56 33, 30.87 34.87, 26.72 36.22 C22.58 37.58, 15.53 39.42, 11.23 37.8 C6.93 36.19, 2.42 30.37, 0.93 26.54 C-0.57 22.71, 1.62 18.65, 2.25 14.8 C2.87 10.94, 0.58 5.36, 4.69 3.4 C8.8 1.43, 22.32 2.42, 26.9 3.01 C31.49 3.61, 32.44 7, 32.2 6.97 M14.01 1.87 C18.59 0.86, 27.68 -1.36, 31.79 0.59 C35.89 2.54, 38.14 9.27, 38.66 13.54 C39.17 17.82, 37.11 23.01, 34.89 26.24 C32.66 29.47, 28.43 31.24, 25.29 32.94 C22.15 34.63, 19.64 37.07, 16.05 36.39 C12.46 35.72, 6.48 31.7, 3.75 28.86 C1.01 26.02, -0.8 23.32, -0.37 19.36 C0.06 15.4, 3.92 8.03, 6.33 5.12 C8.74 2.22, 12.36 2.81, 14.08 1.93 C15.8 1.05, 16.25 -0.36, 16.65 -0.15" stroke="none" stroke-width="0" fill="#f17d32"></path><path d="M29.08 6.05 C32.55 7.93, 36.79 9.8, 37.96 13.26 C39.13 16.71, 38.36 23.1, 36.09 26.78 C33.82 30.46, 28.08 33.78, 24.36 35.32 C20.64 36.87, 17.61 37.54, 13.75 36.02 C9.9 34.51, 3.36 29.98, 1.22 26.24 C-0.91 22.5, -0.2 17.26, 0.97 13.59 C2.14 9.91, 5.59 6.13, 8.24 4.18 C10.89 2.24, 12.36 0.99, 16.87 1.93 C21.37 2.87, 32.15 7.44, 35.27 9.83 C38.4 12.23, 36.12 15.82, 35.62 16.3 M11.71 3.24 C14.9 1.79, 20.24 -0.2, 23.8 0.81 C27.36 1.83, 30.68 5.84, 33.1 9.34 C35.52 12.84, 38.8 17.87, 38.34 21.81 C37.88 25.75, 33.47 30.11, 30.36 32.97 C27.24 35.83, 23.37 39.33, 19.65 38.99 C15.93 38.65, 11.14 33.64, 8.05 30.94 C4.97 28.23, 2.06 26.01, 1.16 22.76 C0.27 19.51, 1.21 14.96, 2.7 11.43 C4.18 7.89, 8.64 3.4, 10.07 1.55 C11.5 -0.31, 10.84 -0.02, 11.27 0.29" stroke="#000000" stroke-width="1" fill="none"></path></g><g stroke-linecap="round"><g stroke-opacity="0.3" fill-opacity="0.3" transform="translate(209.5 341.5) rotate(0 25.15226114988326 -35.0020339846611)"><path d="M0.17 -2.22 C8.57 -13.84, 41.68 -57.16, 50.13 -67.78" stroke="black" stroke-width="1.5" fill="none" stroke-dasharray="1.5 7"></path></g></g><g stroke-linecap="round"><g stroke-opacity="0.3" fill-opacity="0.3" transform="translate(272.5 313.5) rotate(0 0.4513028666495984 -13.711934649944311)"><path d="M-0.1 -0.98 C0.21 -4.92, 1.16 -21.67, 0.98 -26.44" stroke="black" stroke-width="1.5" fill="none" stroke-dasharray="1.5 7"></path></g></g><g stroke-linecap="round"><g stroke-opacity="0.3" fill-opacity="0.3" transform="translate(348 363.5) rotate(0 -29.740930759906746 -41.768711459636705)"><path d="M-2.23 0.68 C-12.23 -13.61, -47.64 -69.55, -57.25 -84.22" stroke="black" stroke-width="1.5" fill="none" stroke-dasharray="1.5 7"></path></g></g><g stroke-linecap="round"><g stroke-opacity="0.3" fill-opacity="0.3" transform="translate(351 289.5) rotate(0 -6.432096850872028 -24.04708844423294)"><path d="M-0.04 -0.55 C-2.26 -8.1, -10.57 -39.86, -12.83 -47.55" stroke="black" stroke-width="1.5" fill="none" stroke-dasharray="1.5 7"></path></g></g><g stroke-linecap="round"><g stroke-opacity="0.3" fill-opacity="0.3" transform="translate(359.5 362) rotate(0 -0.0010546467781296087 -16.228228747844668)"><path d="M0.94 -0.46 C0.89 -5.48, -1.28 -26.71, -0.9 -32" stroke="black" stroke-width="1.5" fill="none" stroke-dasharray="1.5 7"></path></g></g><g stroke-linecap="round"><g stroke-opacity="0.3" fill-opacity="0.3" transform="translate(274 399.5) rotate(0 -30.973426640033722 -15.477341067790974)"><path d="M-0.6 -1.59 C-11.27 -6.19, -51.66 -25.22, -61.35 -29.36" stroke="black" stroke-width="1.5" fill="none" stroke-dasharray="1.5 7"></path></g></g><g stroke-linecap="round"><g stroke-opacity="0.3" fill-opacity="0.3" transform="translate(215 355) rotate(0 20.386560833454155 -8.022008335590385)"><path d="M1.69 2.75 C8.11 0.07, 33.1 -15.71, 39.08 -18.79" stroke="black" stroke-width="1.5" fill="none" stroke-dasharray="1.5 7"></path></g></g><g stroke-linecap="round"><g stroke-opacity="0.3" fill-opacity="0.3" transform="translate(288 388.5) rotate(0 -3.9157461285591353 -21.881371676921816)"><path d="M0.17 -1.97 C-1.19 -8.6, -5.98 -35.32, -8 -41.79" stroke="black" stroke-width="1.5" fill="none" stroke-dasharray="1.5 7"></path></g></g><g stroke-linecap="round"><g stroke-opacity="0.3" fill-opacity="0.3" transform="translate(291 326.5) rotate(0 20.484631526470196 -6.151585757732391)"><path d="M-2.26 -1.72 C5.32 -3.17, 35.15 -9.1, 43.23 -10.58" stroke="black" stroke-width="1.5" fill="none" stroke-dasharray="1.5 7"></path></g></g><g stroke-linecap="round"><g stroke-opacity="0.1" fill-opacity="0.1" transform="translate(177 362.5) rotate(0 -28.41164227724073 -0.39775163806973524)"><path d="M0.05 0.99 C-9.73 1.17, -47.95 1.32, -56.87 1.44 M-3.37 -0.95 C-12.42 -1.53, -42.98 -2, -51.49 -2.24" stroke="black" stroke-width="1" fill="none"></path></g></g><g stroke-linecap="round"><g stroke-opacity="0.1" fill-opacity="0.1" transform="translate(271.5 411.5) rotate(0 -21.388237809389807 12.872702943533625)"><path d="M-2.26 1.12 C-9.16 5.26, -35.56 19.92, -41.81 23.97 M1.71 -0.74 C-5.6 3.78, -37.38 21.67, -44.49 26.49" stroke="black" stroke-width="1" fill="none"></path></g></g><g stroke-linecap="round"><g stroke-opacity="0.1" fill-opacity="0.1" transform="translate(306.5 415) rotate(0 15.033440577983868 19.97901189014317)"><path d="M-1.92 0.2 C3.31 6.44, 26.38 32.44, 31.99 39.02 M2.23 -2.15 C7.04 4.33, 25.15 34.65, 29.74 42.11" stroke="black" stroke-width="1" fill="none"></path></g></g><g stroke-linecap="round"><g stroke-opacity="0.1" fill-opacity="0.1" transform="translate(370 395) rotate(0 23.651987674608847 12.35704104267063)"><path d="M0.78 -0.74 C9.41 3.62, 41.07 23.83, 49.54 28.33 M-2.24 -3.62 C6.27 -0.19, 38.68 19.07, 47.59 24.59" stroke="black" stroke-width="1" fill="none"></path></g></g><g stroke-linecap="round"><g stroke-opacity="0.1" fill-opacity="0.1" transform="translate(370.5 316) rotate(0 28.890882670879364 13.597406017780287)"><path d="M-1.87 -1.51 C8.31 3.24, 49.39 23.86, 59.65 28.7 M2.31 3.84 C12.3 7.78, 48.44 20.1, 57.77 24.62" stroke="black" stroke-width="1" fill="none"></path></g></g><g stroke-linecap="round"><g transform="translate(428.74660223326396 250.52258094595328) rotate(0 -10.832864320397732 2.0843837651079014)"><path d="M0 0 C-3.61 0.69, -18.05 3.47, -21.67 4.17 M0 0 C-3.61 0.69, -18.05 3.47, -21.67 4.17" stroke="black" stroke-width="2" fill="none"></path></g><g transform="translate(428.74660223326396 250.52258094595328) rotate(0 -10.832864320397732 2.0843837651079014)"><path d="M-12.2 -1.49 C-15.96 0.76, -19.73 3.01, -21.67 4.17 M-12.2 -1.49 C-15.89 0.71, -19.57 2.92, -21.67 4.17" stroke="black" stroke-width="2" fill="none"></path></g><g transform="translate(428.74660223326396 250.52258094595328) rotate(0 -10.832864320397732 2.0843837651079014)"><path d="M-10.77 5.92 C-15.1 5.22, -19.43 4.53, -21.67 4.17 M-10.77 5.92 C-15.02 5.23, -19.26 4.55, -21.67 4.17" stroke="black" stroke-width="2" fill="none"></path></g></g><g transform="translate(434.23279769069563 219.9511375496769) rotate(0 68.5 25.5)"><text x="0" y="18.5" font-family="Virgil, Segoe UI Emoji" font-size="20px" fill="black" text-anchor="start" style="white-space: pre;" direction="ltr">co-contributor</text><text x="0" y="44" font-family="Virgil, Segoe UI Emoji" font-size="20px" fill="black" text-anchor="start" style="white-space: pre;" direction="ltr">network</text></g><g stroke-linecap="round"><g transform="translate(532.5889942757569 435.5783533231569) rotate(0 -30.782476750062074 -18.943586093186752)"><path d="M0 0 C-10.26 -6.31, -51.3 -31.57, -61.56 -37.89 M0 0 C-10.26 -6.31, -51.3 -31.57, -61.56 -37.89" stroke="black" stroke-width="2" fill="none"></path></g><g transform="translate(532.5889942757569 435.5783533231569) rotate(0 -30.782476750062074 -18.943586093186752)"><path d="M-32.18 -31.85 C-42.12 -33.89, -52.06 -35.94, -61.56 -37.89 M-32.18 -31.85 C-41.97 -33.86, -51.76 -35.87, -61.56 -37.89" stroke="black" stroke-width="2" fill="none"></path></g><g transform="translate(532.5889942757569 435.5783533231569) rotate(0 -30.782476750062074 -18.943586093186752)"><path d="M-42.93 -14.37 C-49.24 -22.33, -55.54 -30.29, -61.56 -37.89 M-42.93 -14.37 C-49.14 -22.21, -55.35 -30.04, -61.56 -37.89" stroke="black" stroke-width="2" fill="none"></path></g></g><g transform="translate(538.4463668171677 425.10302623183065) rotate(0 46.5 13)"><text x="0" y="18" font-family="Virgil, Segoe UI Emoji" font-size="20px" fill="black" text-anchor="start" style="white-space: pre;" direction="ltr">community</text></g><g stroke-linecap="round"><g transform="translate(150.65131840200797 62.6915977427214) rotate(0 1.301019457833263 12.198389154460727)"><path d="M0 0 C0.43 4.07, 2.17 20.33, 2.6 24.4 M0 0 C0.43 4.07, 2.17 20.33, 2.6 24.4" stroke="black" stroke-width="2" fill="none"></path></g><g transform="translate(150.65131840200797 62.6915977427214) rotate(0 1.301019457833263 12.198389154460727)"><path d="M-2.79 13.38 C-1.05 16.93, 0.68 20.48, 2.6 24.4 M-2.79 13.38 C-1.62 15.76, -0.46 18.15, 2.6 24.4" stroke="black" stroke-width="2" fill="none"></path></g><g transform="translate(150.65131840200797 62.6915977427214) rotate(0 1.301019457833263 12.198389154460727)"><path d="M5.55 12.49 C4.6 16.33, 3.65 20.16, 2.6 24.4 M5.55 12.49 C4.91 15.07, 4.27 17.65, 2.6 24.4" stroke="black" stroke-width="2" fill="none"></path></g></g><g transform="translate(125.135982286542 16.093092348487232) rotate(0 45.5 21)"><text x="0" y="15" font-family="Virgil, Segoe UI Emoji" font-size="16px" fill="black" text-anchor="start" style="white-space: pre;" direction="ltr">initial</text><text x="0" y="36" font-family="Virgil, Segoe UI Emoji" font-size="16px" fill="black" text-anchor="start" style="white-space: pre;" direction="ltr">contribution</text></g><g stroke-opacity="0.3" fill-opacity="0.3" stroke-linecap="round" transform="translate(94.8630603201259 350.86170202738333) rotate(0 17.967361471679226 10.288357906766976)"><path d="M3.78 0.45 L32.46 0.46 L33.49 2.81 L35.56 3.33 L36.6 18.85 L28.97 19.89 L6.25 22.26 L3.26 18.74 L0.44 15.42 L-1.04 2.1 L4.24 -0.4" stroke="none" stroke-width="0" fill="white"></path><path d="M5.14 0 M5.14 0 C9.94 0.26, 18.52 2.04, 30.79 0 M5.14 0 C12.73 -0.01, 20.85 0.65, 30.79 0 M30.79 0 C32.98 0.21, 36.47 1.33, 35.93 5.14 M30.79 0 C32.07 2.25, 34.68 3.89, 35.93 5.14 M35.93 5.14 C35.99 7.82, 36.18 9.13, 35.93 15.43 M35.93 5.14 C36.33 7.42, 35.8 10.12, 35.93 15.43 M35.93 15.43 C35.38 19.78, 34.53 18.77, 30.79 20.58 M35.93 15.43 C35.97 17.38, 35.13 19.79, 30.79 20.58 M30.79 20.58 C25.18 20.16, 16.18 21.53, 5.14 20.58 M30.79 20.58 C21.11 20.6, 12.3 20.86, 5.14 20.58 M5.14 20.58 C2.92 20.57, -0.74 19.68, 0 15.43 M5.14 20.58 C1.88 19.72, -1.33 19.26, 0 15.43 M0 15.43 C0.76 12.09, 0.21 10.96, 0 5.14 M0 15.43 C-0.04 12.44, -0.09 9.51, 0 5.14 M0 5.14 C0.67 1.12, 0.03 -1.83, 5.14 0 M0 5.14 C1.95 2.82, 2.44 -1.12, 5.14 0" stroke="#c91e85" stroke-width="2" fill="none"></path></g><g stroke-opacity="0.3" fill-opacity="0.3" stroke-linecap="round" transform="translate(201.89393220082763 430.5887800609672) rotate(0 17.967361471679226 10.288357906766976)"><path d="M5.84 -0.61 L28.94 -0.96 L35.85 1.66 L36.57 6.78 L36.35 20.91 L28.84 22.25 L6.96 20.31 L2.83 19.56 L0.21 15.76 L1.56 2.41 L3.65 -1.99" stroke="none" stroke-width="0" fill="white"></path><path d="M5.14 0 M5.14 0 C11.04 0.67, 17.59 0.21, 30.79 0 M5.14 0 C12.05 -0.83, 21.7 -0.03, 30.79 0 M30.79 0 C34.81 -1.21, 35.79 3.17, 35.93 5.14 M30.79 0 C34.26 0.06, 37.99 2.81, 35.93 5.14 M35.93 5.14 C35.82 8.26, 36.62 12.27, 35.93 15.43 M35.93 5.14 C35.53 8.76, 35.63 11.56, 35.93 15.43 M35.93 15.43 C37.82 18.13, 32.57 20.29, 30.79 20.58 M35.93 15.43 C35.02 17.68, 36.43 20.1, 30.79 20.58 M30.79 20.58 C24.4 19.15, 15.72 18.94, 5.14 20.58 M30.79 20.58 C25.37 21.01, 21.14 21.3, 5.14 20.58 M5.14 20.58 C3.26 20.74, 0.13 17.13, 0 15.43 M5.14 20.58 C3.44 18.42, 2.25 19.38, 0 15.43 M0 15.43 C0.2 12.96, -0.95 9, 0 5.14 M0 15.43 C0.4 12.5, 0.19 10.9, 0 5.14 M0 5.14 C1.13 3.23, 2.75 -0.15, 5.14 0 M0 5.14 C-1.05 2.77, 2.16 1.89, 5.14 0" stroke="#c91e85" stroke-width="2" fill="none"></path></g><g stroke-opacity="0.3" fill-opacity="0.3" stroke-linecap="round" transform="translate(330.7678391592235 443.6946011075838) rotate(0 17.967361471679226 10.288357906766976)"><path d="M5.18 0.06 L32.58 0.95 L34.88 0.35 L34.85 5.01 L34.47 20.71 L32.17 20.9 L5.59 22.32 L-0.39 20.71 L-1.26 15.07 L2.21 2.16 L3.5 -0.28" stroke="none" stroke-width="0" fill="white"></path><path d="M5.14 0 M5.14 0 C11.4 0.18, 17.15 -1.16, 30.79 0 M5.14 0 C14.46 -1.11, 24.35 -0.5, 30.79 0 M30.79 0 C33.97 1.03, 37.83 3.33, 35.93 5.14 M30.79 0 C36 0.18, 36.08 -0.27, 35.93 5.14 M35.93 5.14 C36.07 9.13, 35.09 12.62, 35.93 15.43 M35.93 5.14 C36.01 8.05, 35.93 11.1, 35.93 15.43 M35.93 15.43 C37.41 17.04, 34.91 22.13, 30.79 20.58 M35.93 15.43 C37.23 20.6, 35.41 20.41, 30.79 20.58 M30.79 20.58 C25.91 19.12, 19.25 22.01, 5.14 20.58 M30.79 20.58 C23.24 20.32, 14.62 20.56, 5.14 20.58 M5.14 20.58 C3.57 21.65, 1.79 19.24, 0 15.43 M5.14 20.58 C3.58 19.36, -1.85 19.72, 0 15.43 M0 15.43 C-0.51 13.28, 1.06 9.26, 0 5.14 M0 15.43 C0.18 11.86, -0.47 7.68, 0 5.14 M0 5.14 C0.69 1.24, 1.04 -1.44, 5.14 0 M0 5.14 C1.66 3.55, 2.78 0.93, 5.14 0" stroke="#c91e85" stroke-width="2" fill="none"></path></g><g stroke-opacity="0.3" fill-opacity="0.3" stroke-linecap="round" transform="translate(410.49491719280763 410.9300484910426) rotate(0 17.967361471679283 10.288357906766976)"><path d="M3.28 -1.87 L30.16 -0.25 L35.68 3.18 L37.55 6.69 L34.81 19.42 L29.06 22.07 L3.27 22.53 L1.73 19.54 L-1.46 14.97 L0.57 4.33 L3.15 -0.01" stroke="none" stroke-width="0" fill="white"></path><path d="M5.14 0 M5.14 0 C12.76 -1.59, 18.12 1.79, 30.79 0 M5.14 0 C14.21 -0.59, 23.89 0.06, 30.79 0 M30.79 0 C35.86 -1.51, 37.43 3.09, 35.93 5.14 M30.79 0 C34.84 1.7, 37.5 3.62, 35.93 5.14 M35.93 5.14 C36.95 8.34, 36.92 10.63, 35.93 15.43 M35.93 5.14 C36.07 8.96, 35.45 13.28, 35.93 15.43 M35.93 15.43 C34.77 20.26, 36.12 19.75, 30.79 20.58 M35.93 15.43 C37.95 18.52, 35.61 21.32, 30.79 20.58 M30.79 20.58 C21.72 20.22, 10.58 19.25, 5.14 20.58 M30.79 20.58 C21.64 20.72, 11.16 20.48, 5.14 20.58 M5.14 20.58 C0.97 21.23, -0.36 17.78, 0 15.43 M5.14 20.58 C0 18.73, 0.97 20.68, 0 15.43 M0 15.43 C0.66 11.68, 0.46 8.12, 0 5.14 M0 15.43 C0.47 13.38, -0.22 10.96, 0 5.14 M0 5.14 C-0.31 1.09, -0.07 0.02, 5.14 0 M0 5.14 C-1.19 0.91, 0.69 -1.7, 5.14 0" stroke="#c91e85" stroke-width="2" fill="none"></path></g><g stroke-opacity="0.3" fill-opacity="0.3" stroke-linecap="round" transform="translate(425.78504174719296 329.0186669496891) rotate(0 17.967361471679283 10.288357906766976)"><path d="M3.32 0.69 L32.35 1.13 L36.16 2.32 L35.79 4.23 L35.57 19.68 L32.43 19.07 L6.64 21.96 L1.82 20.77 L1.36 17.09 L-0.53 4.1 L4.76 1.86" stroke="none" stroke-width="0" fill="white"></path><path d="M5.14 0 M5.14 0 C15.84 -1.11, 21.68 0.7, 30.79 0 M5.14 0 C11.73 0.55, 20.42 -0.56, 30.79 0 M30.79 0 C35.98 -0.3, 37.15 2.36, 35.93 5.14 M30.79 0 C36.08 -2.15, 36.96 2.51, 35.93 5.14 M35.93 5.14 C36.64 8.81, 36.38 11.24, 35.93 15.43 M35.93 5.14 C35.69 8.43, 35.79 11.1, 35.93 15.43 M35.93 15.43 C34.44 17.26, 35.06 22.16, 30.79 20.58 M35.93 15.43 C36.14 18.18, 34.95 21.99, 30.79 20.58 M30.79 20.58 C23.01 18.55, 17.1 21.79, 5.14 20.58 M30.79 20.58 C21.69 20.33, 12 20.65, 5.14 20.58 M5.14 20.58 C0.68 19.88, -0.89 17.38, 0 15.43 M5.14 20.58 C-0.15 22.19, 1.24 19.02, 0 15.43 M0 15.43 C-0.06 12.88, 0.8 11.09, 0 5.14 M0 15.43 C0.15 11.71, -0.32 9.31, 0 5.14 M0 5.14 C-1.15 3.32, 2.14 0.94, 5.14 0 M0 5.14 C-0.78 3.93, 4.01 1.77, 5.14 0" stroke="#c91e85" stroke-width="2" fill="none"></path></g></svg>